<mxfile host="app.diagrams.net" modified="2024-03-29T09:36:08.409Z" agent="Mozilla/5.0 (Windows NT 10.0; Win64; x64) AppleWebKit/537.36 (KHTML, like Gecko) Chrome/123.0.0.0 Safari/537.36" etag="dVOuUALJ4dGIxw4sKMpa" version="24.2.1" type="github">
  <diagram id="C5RBs43oDa-KdzZeNtuy" name="Page-1">
    <mxGraphModel dx="2193" dy="1872" grid="1" gridSize="10" guides="1" tooltips="1" connect="1" arrows="1" fold="1" page="1" pageScale="1" pageWidth="827" pageHeight="1169" math="0" shadow="0">
      <root>
        <mxCell id="WIyWlLk6GJQsqaUBKTNV-0" />
        <mxCell id="WIyWlLk6GJQsqaUBKTNV-1" parent="WIyWlLk6GJQsqaUBKTNV-0" />
        <mxCell id="kR8NcSIGtyid4hFmj-2y-34" value="" style="edgeStyle=orthogonalEdgeStyle;rounded=0;orthogonalLoop=1;jettySize=auto;html=1;" edge="1" parent="WIyWlLk6GJQsqaUBKTNV-1" source="WIyWlLk6GJQsqaUBKTNV-3" target="kR8NcSIGtyid4hFmj-2y-33">
          <mxGeometry relative="1" as="geometry" />
        </mxCell>
        <mxCell id="WIyWlLk6GJQsqaUBKTNV-3" value="新案件進入" style="rounded=1;whiteSpace=wrap;html=1;fontSize=12;glass=0;strokeWidth=1;shadow=0;" parent="WIyWlLk6GJQsqaUBKTNV-1" vertex="1">
          <mxGeometry x="165" y="-200" width="210" height="70" as="geometry" />
        </mxCell>
        <mxCell id="kR8NcSIGtyid4hFmj-2y-10" value="" style="edgeStyle=orthogonalEdgeStyle;rounded=0;orthogonalLoop=1;jettySize=auto;html=1;exitX=0.5;exitY=1;exitDx=0;exitDy=0;" edge="1" parent="WIyWlLk6GJQsqaUBKTNV-1" source="kR8NcSIGtyid4hFmj-2y-41" target="kR8NcSIGtyid4hFmj-2y-9">
          <mxGeometry relative="1" as="geometry">
            <mxPoint x="270" y="250" as="sourcePoint" />
          </mxGeometry>
        </mxCell>
        <mxCell id="kR8NcSIGtyid4hFmj-2y-47" value="" style="edgeStyle=orthogonalEdgeStyle;rounded=0;orthogonalLoop=1;jettySize=auto;html=1;" edge="1" parent="WIyWlLk6GJQsqaUBKTNV-1" target="kR8NcSIGtyid4hFmj-2y-46">
          <mxGeometry relative="1" as="geometry">
            <mxPoint x="-190" y="220" as="sourcePoint" />
          </mxGeometry>
        </mxCell>
        <mxCell id="kR8NcSIGtyid4hFmj-2y-5" value="another公司" style="whiteSpace=wrap;html=1;shadow=0;strokeWidth=1;spacing=6;spacingTop=-4;" vertex="1" parent="WIyWlLk6GJQsqaUBKTNV-1">
          <mxGeometry x="870" y="250" width="120" height="60" as="geometry" />
        </mxCell>
        <mxCell id="kR8NcSIGtyid4hFmj-2y-12" value="" style="edgeStyle=orthogonalEdgeStyle;rounded=0;orthogonalLoop=1;jettySize=auto;html=1;" edge="1" parent="WIyWlLk6GJQsqaUBKTNV-1" source="kR8NcSIGtyid4hFmj-2y-9" target="kR8NcSIGtyid4hFmj-2y-11">
          <mxGeometry relative="1" as="geometry" />
        </mxCell>
        <mxCell id="kR8NcSIGtyid4hFmj-2y-14" value="" style="edgeStyle=orthogonalEdgeStyle;rounded=0;orthogonalLoop=1;jettySize=auto;html=1;" edge="1" parent="WIyWlLk6GJQsqaUBKTNV-1" source="kR8NcSIGtyid4hFmj-2y-9" target="kR8NcSIGtyid4hFmj-2y-13">
          <mxGeometry relative="1" as="geometry" />
        </mxCell>
        <mxCell id="kR8NcSIGtyid4hFmj-2y-9" value="公會【營運組】判斷接案歸屬" style="rhombus;whiteSpace=wrap;html=1;shadow=0;fontFamily=Helvetica;fontSize=12;align=center;strokeWidth=1;spacing=6;spacingTop=-4;" vertex="1" parent="WIyWlLk6GJQsqaUBKTNV-1">
          <mxGeometry x="170" y="260" width="200" height="110" as="geometry" />
        </mxCell>
        <mxCell id="kR8NcSIGtyid4hFmj-2y-19" value="" style="edgeStyle=orthogonalEdgeStyle;rounded=0;orthogonalLoop=1;jettySize=auto;html=1;" edge="1" parent="WIyWlLk6GJQsqaUBKTNV-1" source="kR8NcSIGtyid4hFmj-2y-11" target="kR8NcSIGtyid4hFmj-2y-18">
          <mxGeometry relative="1" as="geometry" />
        </mxCell>
        <mxCell id="kR8NcSIGtyid4hFmj-2y-62" style="edgeStyle=orthogonalEdgeStyle;rounded=0;orthogonalLoop=1;jettySize=auto;html=1;exitX=1;exitY=0.5;exitDx=0;exitDy=0;entryX=0;entryY=0.5;entryDx=0;entryDy=0;" edge="1" parent="WIyWlLk6GJQsqaUBKTNV-1" source="kR8NcSIGtyid4hFmj-2y-11" target="kR8NcSIGtyid4hFmj-2y-13">
          <mxGeometry relative="1" as="geometry" />
        </mxCell>
        <mxCell id="kR8NcSIGtyid4hFmj-2y-11" value="公會【營運組】" style="whiteSpace=wrap;html=1;shadow=0;strokeWidth=1;spacing=6;spacingTop=-4;" vertex="1" parent="WIyWlLk6GJQsqaUBKTNV-1">
          <mxGeometry x="210" y="430" width="120" height="60" as="geometry" />
        </mxCell>
        <mxCell id="kR8NcSIGtyid4hFmj-2y-24" value="" style="edgeStyle=orthogonalEdgeStyle;rounded=0;orthogonalLoop=1;jettySize=auto;html=1;" edge="1" parent="WIyWlLk6GJQsqaUBKTNV-1" source="kR8NcSIGtyid4hFmj-2y-13" target="kR8NcSIGtyid4hFmj-2y-23">
          <mxGeometry relative="1" as="geometry" />
        </mxCell>
        <mxCell id="kR8NcSIGtyid4hFmj-2y-32" style="edgeStyle=orthogonalEdgeStyle;rounded=0;orthogonalLoop=1;jettySize=auto;html=1;exitX=0;exitY=0.25;exitDx=0;exitDy=0;entryX=1;entryY=0.25;entryDx=0;entryDy=0;" edge="1" parent="WIyWlLk6GJQsqaUBKTNV-1" source="kR8NcSIGtyid4hFmj-2y-13" target="kR8NcSIGtyid4hFmj-2y-11">
          <mxGeometry relative="1" as="geometry" />
        </mxCell>
        <mxCell id="kR8NcSIGtyid4hFmj-2y-13" value="公會【維運組】" style="whiteSpace=wrap;html=1;shadow=0;strokeWidth=1;spacing=6;spacingTop=-4;" vertex="1" parent="WIyWlLk6GJQsqaUBKTNV-1">
          <mxGeometry x="550" y="430" width="120" height="60" as="geometry" />
        </mxCell>
        <mxCell id="kR8NcSIGtyid4hFmj-2y-15" value="&lt;font style=&quot;font-size: 15px; background-color: rgb(255, 255, 204);&quot;&gt;&lt;b&gt;案件來源:各家公司、中華、公會、&lt;/b&gt;&lt;/font&gt;&lt;div style=&quot;font-size: 15px;&quot;&gt;&lt;font style=&quot;font-size: 15px; background-color: rgb(255, 255, 204);&quot;&gt;&lt;b&gt;民眾(民眾透過電話或是email告知問題，再由公會新增案件)&lt;/b&gt;&lt;/font&gt;&lt;div&gt;&lt;br&gt;&lt;/div&gt;&lt;/div&gt;" style="text;html=1;align=left;verticalAlign=middle;resizable=0;points=[];autosize=1;strokeColor=none;fillColor=none;" vertex="1" parent="WIyWlLk6GJQsqaUBKTNV-1">
          <mxGeometry x="420" y="-200" width="420" height="70" as="geometry" />
        </mxCell>
        <mxCell id="kR8NcSIGtyid4hFmj-2y-65" value="" style="edgeStyle=orthogonalEdgeStyle;rounded=0;orthogonalLoop=1;jettySize=auto;html=1;" edge="1" parent="WIyWlLk6GJQsqaUBKTNV-1" source="kR8NcSIGtyid4hFmj-2y-18" target="kR8NcSIGtyid4hFmj-2y-64">
          <mxGeometry relative="1" as="geometry" />
        </mxCell>
        <mxCell id="kR8NcSIGtyid4hFmj-2y-18" value="公會【營運組】同仁回覆完成後" style="whiteSpace=wrap;html=1;shadow=0;strokeWidth=1;spacing=6;spacingTop=-4;" vertex="1" parent="WIyWlLk6GJQsqaUBKTNV-1">
          <mxGeometry x="170" y="547" width="200" height="63" as="geometry" />
        </mxCell>
        <mxCell id="kR8NcSIGtyid4hFmj-2y-20" value="【新增案件者】接收回覆，確認無誤後，由【新增案件者】按下結束按鈕，結束此案件。" style="rounded=1;whiteSpace=wrap;html=1;shadow=0;strokeWidth=1;spacing=6;spacingTop=-4;" vertex="1" parent="WIyWlLk6GJQsqaUBKTNV-1">
          <mxGeometry x="142.5" y="1330" width="255" height="75" as="geometry" />
        </mxCell>
        <mxCell id="kR8NcSIGtyid4hFmj-2y-73" style="edgeStyle=orthogonalEdgeStyle;rounded=0;orthogonalLoop=1;jettySize=auto;html=1;exitX=0.5;exitY=1;exitDx=0;exitDy=0;" edge="1" parent="WIyWlLk6GJQsqaUBKTNV-1" source="kR8NcSIGtyid4hFmj-2y-23" target="kR8NcSIGtyid4hFmj-2y-64">
          <mxGeometry relative="1" as="geometry">
            <Array as="points">
              <mxPoint x="610" y="730" />
              <mxPoint x="270" y="730" />
            </Array>
          </mxGeometry>
        </mxCell>
        <mxCell id="kR8NcSIGtyid4hFmj-2y-23" value="&lt;br&gt;&lt;span style=&quot;color: rgb(0, 0, 0); font-family: Helvetica; font-size: 12px; font-style: normal; font-variant-ligatures: normal; font-variant-caps: normal; font-weight: 400; letter-spacing: normal; orphans: 2; text-align: center; text-indent: 0px; text-transform: none; widows: 2; word-spacing: 0px; -webkit-text-stroke-width: 0px; white-space: normal; background-color: rgb(251, 251, 251); text-decoration-thickness: initial; text-decoration-style: initial; text-decoration-color: initial; display: inline !important; float: none;&quot;&gt;公會【維運組】同仁回覆完成後&lt;/span&gt;&lt;div&gt;&lt;br&gt;&lt;/div&gt;" style="whiteSpace=wrap;html=1;shadow=0;strokeWidth=1;spacing=6;spacingTop=-4;" vertex="1" parent="WIyWlLk6GJQsqaUBKTNV-1">
          <mxGeometry x="515" y="547" width="190" height="63" as="geometry" />
        </mxCell>
        <mxCell id="kR8NcSIGtyid4hFmj-2y-40" value="" style="edgeStyle=orthogonalEdgeStyle;rounded=0;orthogonalLoop=1;jettySize=auto;html=1;entryX=0.5;entryY=0;entryDx=0;entryDy=0;" edge="1" parent="WIyWlLk6GJQsqaUBKTNV-1" source="kR8NcSIGtyid4hFmj-2y-33" target="kR8NcSIGtyid4hFmj-2y-41">
          <mxGeometry relative="1" as="geometry">
            <mxPoint x="270" y="132.5" as="targetPoint" />
          </mxGeometry>
        </mxCell>
        <mxCell id="kR8NcSIGtyid4hFmj-2y-78" value="公會" style="edgeLabel;html=1;align=center;verticalAlign=middle;resizable=0;points=[];" vertex="1" connectable="0" parent="kR8NcSIGtyid4hFmj-2y-40">
          <mxGeometry x="-0.2095" y="1" relative="1" as="geometry">
            <mxPoint as="offset" />
          </mxGeometry>
        </mxCell>
        <mxCell id="kR8NcSIGtyid4hFmj-2y-44" style="edgeStyle=orthogonalEdgeStyle;rounded=0;orthogonalLoop=1;jettySize=auto;html=1;exitX=0;exitY=0.5;exitDx=0;exitDy=0;" edge="1" parent="WIyWlLk6GJQsqaUBKTNV-1" source="kR8NcSIGtyid4hFmj-2y-33">
          <mxGeometry relative="1" as="geometry">
            <mxPoint x="-190" y="160" as="targetPoint" />
          </mxGeometry>
        </mxCell>
        <mxCell id="kR8NcSIGtyid4hFmj-2y-77" value="中華" style="edgeLabel;html=1;align=center;verticalAlign=middle;resizable=0;points=[];" vertex="1" connectable="0" parent="kR8NcSIGtyid4hFmj-2y-44">
          <mxGeometry x="-0.3525" y="3" relative="1" as="geometry">
            <mxPoint as="offset" />
          </mxGeometry>
        </mxCell>
        <mxCell id="kR8NcSIGtyid4hFmj-2y-45" style="edgeStyle=orthogonalEdgeStyle;rounded=0;orthogonalLoop=1;jettySize=auto;html=1;exitX=1;exitY=0.5;exitDx=0;exitDy=0;" edge="1" parent="WIyWlLk6GJQsqaUBKTNV-1" source="kR8NcSIGtyid4hFmj-2y-33" target="kR8NcSIGtyid4hFmj-2y-5">
          <mxGeometry relative="1" as="geometry" />
        </mxCell>
        <mxCell id="kR8NcSIGtyid4hFmj-2y-79" value="another 公司" style="edgeLabel;html=1;align=center;verticalAlign=middle;resizable=0;points=[];" vertex="1" connectable="0" parent="kR8NcSIGtyid4hFmj-2y-45">
          <mxGeometry x="-0.3496" y="2" relative="1" as="geometry">
            <mxPoint as="offset" />
          </mxGeometry>
        </mxCell>
        <mxCell id="kR8NcSIGtyid4hFmj-2y-33" value="系統判斷【案件收件者】誰?&lt;div&gt;如果沒有default為公會【營運組】&lt;/div&gt;" style="rhombus;whiteSpace=wrap;html=1;rounded=1;glass=0;strokeWidth=1;shadow=0;" vertex="1" parent="WIyWlLk6GJQsqaUBKTNV-1">
          <mxGeometry x="140" y="-50" width="260" height="140" as="geometry" />
        </mxCell>
        <mxCell id="kR8NcSIGtyid4hFmj-2y-41" value="公會【營運組】" style="whiteSpace=wrap;html=1;shadow=0;strokeWidth=1;spacing=6;spacingTop=-4;" vertex="1" parent="WIyWlLk6GJQsqaUBKTNV-1">
          <mxGeometry x="205" y="160" width="130" height="60" as="geometry" />
        </mxCell>
        <mxCell id="kR8NcSIGtyid4hFmj-2y-43" value="&lt;font style=&quot;font-size: 16px;&quot;&gt;&lt;b style=&quot;background-color: rgb(255, 153, 153);&quot;&gt;新增案件column:&lt;/b&gt;&lt;/font&gt;&lt;div style=&quot;font-size: 16px;&quot;&gt;&lt;font style=&quot;font-size: 16px;&quot;&gt;&lt;b style=&quot;background-color: rgb(255, 153, 153);&quot;&gt;1.案件相關系統&lt;/b&gt;&lt;/font&gt;&lt;/div&gt;&lt;div style=&quot;font-size: 16px;&quot;&gt;&lt;font style=&quot;font-size: 16px;&quot;&gt;&lt;b style=&quot;background-color: rgb(255, 153, 153);&quot;&gt;2.案件收件者&lt;/b&gt;&lt;/font&gt;&lt;/div&gt;" style="text;html=1;align=left;verticalAlign=middle;resizable=0;points=[];autosize=1;strokeColor=none;fillColor=none;" vertex="1" parent="WIyWlLk6GJQsqaUBKTNV-1">
          <mxGeometry x="-20" y="-200" width="150" height="70" as="geometry" />
        </mxCell>
        <mxCell id="kR8NcSIGtyid4hFmj-2y-80" style="edgeStyle=orthogonalEdgeStyle;rounded=0;orthogonalLoop=1;jettySize=auto;html=1;exitX=0.5;exitY=1;exitDx=0;exitDy=0;" edge="1" parent="WIyWlLk6GJQsqaUBKTNV-1" source="kR8NcSIGtyid4hFmj-2y-46" target="kR8NcSIGtyid4hFmj-2y-48">
          <mxGeometry relative="1" as="geometry" />
        </mxCell>
        <mxCell id="kR8NcSIGtyid4hFmj-2y-81" value="沒指定【負責人】" style="edgeLabel;html=1;align=center;verticalAlign=middle;resizable=0;points=[];" vertex="1" connectable="0" parent="kR8NcSIGtyid4hFmj-2y-80">
          <mxGeometry x="0.0193" relative="1" as="geometry">
            <mxPoint as="offset" />
          </mxGeometry>
        </mxCell>
        <mxCell id="kR8NcSIGtyid4hFmj-2y-83" value="" style="edgeStyle=orthogonalEdgeStyle;rounded=0;orthogonalLoop=1;jettySize=auto;html=1;" edge="1" parent="WIyWlLk6GJQsqaUBKTNV-1" source="kR8NcSIGtyid4hFmj-2y-46" target="kR8NcSIGtyid4hFmj-2y-82">
          <mxGeometry relative="1" as="geometry" />
        </mxCell>
        <mxCell id="kR8NcSIGtyid4hFmj-2y-84" value="有指定負責人" style="edgeLabel;html=1;align=center;verticalAlign=middle;resizable=0;points=[];" vertex="1" connectable="0" parent="kR8NcSIGtyid4hFmj-2y-83">
          <mxGeometry x="-0.0982" y="-1" relative="1" as="geometry">
            <mxPoint as="offset" />
          </mxGeometry>
        </mxCell>
        <mxCell id="kR8NcSIGtyid4hFmj-2y-46" value="系統判斷是中華哪位承辦?如沒指定，此案件進入該單位，等待負責承辦處理" style="rhombus;whiteSpace=wrap;html=1;shadow=0;strokeWidth=1;spacing=6;spacingTop=-4;align=center;" vertex="1" parent="WIyWlLk6GJQsqaUBKTNV-1">
          <mxGeometry x="-305" y="160" width="230" height="130" as="geometry" />
        </mxCell>
        <mxCell id="kR8NcSIGtyid4hFmj-2y-85" style="edgeStyle=orthogonalEdgeStyle;rounded=0;orthogonalLoop=1;jettySize=auto;html=1;exitX=0.5;exitY=1;exitDx=0;exitDy=0;" edge="1" parent="WIyWlLk6GJQsqaUBKTNV-1" source="kR8NcSIGtyid4hFmj-2y-48" target="kR8NcSIGtyid4hFmj-2y-64">
          <mxGeometry relative="1" as="geometry">
            <Array as="points">
              <mxPoint x="-190" y="730" />
              <mxPoint x="270" y="730" />
            </Array>
          </mxGeometry>
        </mxCell>
        <mxCell id="kR8NcSIGtyid4hFmj-2y-48" value="中華各組承辦回覆完成後" style="whiteSpace=wrap;html=1;shadow=0;strokeWidth=1;spacing=6;spacingTop=-4;" vertex="1" parent="WIyWlLk6GJQsqaUBKTNV-1">
          <mxGeometry x="-270" y="480" width="160" height="60" as="geometry" />
        </mxCell>
        <mxCell id="kR8NcSIGtyid4hFmj-2y-67" value="" style="edgeStyle=orthogonalEdgeStyle;rounded=0;orthogonalLoop=1;jettySize=auto;html=1;" edge="1" parent="WIyWlLk6GJQsqaUBKTNV-1" source="kR8NcSIGtyid4hFmj-2y-64" target="kR8NcSIGtyid4hFmj-2y-66">
          <mxGeometry relative="1" as="geometry" />
        </mxCell>
        <mxCell id="kR8NcSIGtyid4hFmj-2y-68" value="最終答案" style="edgeLabel;html=1;align=center;verticalAlign=middle;resizable=0;points=[];" vertex="1" connectable="0" parent="kR8NcSIGtyid4hFmj-2y-67">
          <mxGeometry x="-0.0571" relative="1" as="geometry">
            <mxPoint as="offset" />
          </mxGeometry>
        </mxCell>
        <mxCell id="kR8NcSIGtyid4hFmj-2y-75" value="" style="edgeStyle=orthogonalEdgeStyle;rounded=0;orthogonalLoop=1;jettySize=auto;html=1;" edge="1" parent="WIyWlLk6GJQsqaUBKTNV-1" source="kR8NcSIGtyid4hFmj-2y-64" target="kR8NcSIGtyid4hFmj-2y-74">
          <mxGeometry relative="1" as="geometry" />
        </mxCell>
        <mxCell id="kR8NcSIGtyid4hFmj-2y-64" value="判斷是否還有下一個處理對象或是已是最終答案" style="rhombus;whiteSpace=wrap;html=1;shadow=0;strokeWidth=1;spacing=6;spacingTop=-4;" vertex="1" parent="WIyWlLk6GJQsqaUBKTNV-1">
          <mxGeometry x="170" y="840" width="200" height="150" as="geometry" />
        </mxCell>
        <mxCell id="kR8NcSIGtyid4hFmj-2y-69" style="edgeStyle=orthogonalEdgeStyle;rounded=0;orthogonalLoop=1;jettySize=auto;html=1;exitX=0.5;exitY=1;exitDx=0;exitDy=0;" edge="1" parent="WIyWlLk6GJQsqaUBKTNV-1" source="kR8NcSIGtyid4hFmj-2y-66" target="kR8NcSIGtyid4hFmj-2y-20">
          <mxGeometry relative="1" as="geometry" />
        </mxCell>
        <mxCell id="kR8NcSIGtyid4hFmj-2y-66" value="&lt;br&gt;&lt;span style=&quot;color: rgb(0, 0, 0); font-family: Helvetica; font-size: 12px; font-style: normal; font-variant-ligatures: normal; font-variant-caps: normal; font-weight: 400; letter-spacing: normal; orphans: 2; text-align: center; text-indent: 0px; text-transform: none; widows: 2; word-spacing: 0px; -webkit-text-stroke-width: 0px; white-space: normal; background-color: rgb(251, 251, 251); text-decoration-thickness: initial; text-decoration-style: initial; text-decoration-color: initial; display: inline !important; float: none;&quot;&gt;將案件返回給【新增案件者】&lt;/span&gt;" style="whiteSpace=wrap;html=1;shadow=0;strokeWidth=1;spacing=6;spacingTop=-4;" vertex="1" parent="WIyWlLk6GJQsqaUBKTNV-1">
          <mxGeometry x="160" y="1109" width="220" height="60" as="geometry" />
        </mxCell>
        <mxCell id="kR8NcSIGtyid4hFmj-2y-91" style="edgeStyle=orthogonalEdgeStyle;rounded=0;orthogonalLoop=1;jettySize=auto;html=1;" edge="1" parent="WIyWlLk6GJQsqaUBKTNV-1" source="kR8NcSIGtyid4hFmj-2y-74">
          <mxGeometry relative="1" as="geometry">
            <mxPoint x="-600" y="-110" as="targetPoint" />
          </mxGeometry>
        </mxCell>
        <mxCell id="kR8NcSIGtyid4hFmj-2y-74" value="案件傳給下一個【處理者】" style="whiteSpace=wrap;html=1;shadow=0;strokeWidth=1;spacing=6;spacingTop=-4;" vertex="1" parent="WIyWlLk6GJQsqaUBKTNV-1">
          <mxGeometry x="-680" y="735" width="160" height="60" as="geometry" />
        </mxCell>
        <mxCell id="kR8NcSIGtyid4hFmj-2y-87" style="edgeStyle=orthogonalEdgeStyle;rounded=0;orthogonalLoop=1;jettySize=auto;html=1;exitX=0.5;exitY=1;exitDx=0;exitDy=0;" edge="1" parent="WIyWlLk6GJQsqaUBKTNV-1">
          <mxGeometry relative="1" as="geometry">
            <mxPoint x="270" y="647.5" as="targetPoint" />
            <mxPoint x="-490" y="272.4999999999998" as="sourcePoint" />
            <Array as="points">
              <mxPoint x="-490" y="647.5" />
              <mxPoint x="-185" y="647.5" />
            </Array>
          </mxGeometry>
        </mxCell>
        <mxCell id="kR8NcSIGtyid4hFmj-2y-82" value="中華承辦回覆完成後" style="whiteSpace=wrap;html=1;shadow=0;strokeWidth=1;spacing=6;spacingTop=-4;" vertex="1" parent="WIyWlLk6GJQsqaUBKTNV-1">
          <mxGeometry x="-570" y="195" width="150" height="60" as="geometry" />
        </mxCell>
        <mxCell id="kR8NcSIGtyid4hFmj-2y-90" value="" style="endArrow=classic;html=1;rounded=0;" edge="1" parent="WIyWlLk6GJQsqaUBKTNV-1">
          <mxGeometry width="50" height="50" relative="1" as="geometry">
            <mxPoint x="-600" y="-110" as="sourcePoint" />
            <mxPoint x="270" y="-101" as="targetPoint" />
          </mxGeometry>
        </mxCell>
      </root>
    </mxGraphModel>
  </diagram>
</mxfile>
